<?xml version="1.0" encoding="utf-8"?>
<!-- Generator: Adobe Illustrator 22.0.1, SVG Export Plug-In . SVG Version: 6.00 Build 0)  -->
<svg version="1.1" id="Layer_1" xmlns="http://www.w3.org/2000/svg" xmlns:xlink="http://www.w3.org/1999/xlink" x="0px" y="0px"
	 viewBox="0 0 154 71" enable-background="new 0 0 154 71" xml:space="preserve">
<g>
	<g>
		<path fill="#373737" d="M26.5,28.7c0-3.2,2.5-5.4,5.7-5.4c2.5,0,3.9,1.4,4.6,2.8l-2.3,1.1c-0.3-0.8-1.2-1.5-2.3-1.5
			c-1.7,0-2.9,1.3-2.9,3c0,1.7,1.2,3,2.9,3c1,0,1.9-0.7,2.3-1.5l2.3,1.1c-0.7,1.4-2,2.8-4.6,2.8C29,34.1,26.5,31.9,26.5,28.7z"/>
		<path fill="#373737" d="M44.9,33.9l-0.5-1.5h-4.1l-0.5,1.5h-3.1l4-10.5H44l4,10.5H44.9z M42.3,26.1L41,30h2.7L42.3,26.1z"/>
		<path fill="#373737" d="M48.8,33.9V23.4H54c2.4,0,3.7,1.6,3.7,3.5c0,1.9-1.3,3.5-3.7,3.5h-2.6v3.5H48.8z M54.9,26.9
			c0-0.7-0.5-1.1-1.3-1.1h-2.2V28h2.2C54.4,28,54.9,27.6,54.9,26.9z"/>
		<path fill="#373737" d="M58.9,33.9V23.4h2.7v10.5H58.9z"/>
		<path fill="#373737" d="M65.8,33.9v-8.1h-2.9v-2.4h8.6v2.4h-2.9v8.1H65.8z"/>
		<path fill="#373737" d="M78.9,33.9l-0.5-1.5h-4.1l-0.5,1.5h-3.1l4-10.5H78l4,10.5H78.9z M76.3,26.1L75,30h2.7L76.3,26.1z"/>
		<path fill="#373737" d="M82.8,33.9V23.4h2.7v8.1h4.2v2.4H82.8z"/>
		<path fill="#373737" d="M101,33.9l-1.8-3.5h-1.4v3.5h-2.7V23.4h5.3c2.3,0,3.7,1.5,3.7,3.5c0,1.8-1.1,2.8-2.1,3.1l2.1,3.9H101z
			 M101.3,26.9c0-0.7-0.6-1.1-1.3-1.1h-2.1V28h2.1C100.7,28,101.3,27.6,101.3,26.9z"/>
		<path fill="#373737" d="M105.5,33.9V23.4h7.7v2.4h-5v1.6h4.9v2.4h-4.9v1.8h5v2.4H105.5z"/>
		<path fill="#373737" d="M114.3,28.7c0-3.3,2.6-5.4,5.7-5.4c2.3,0,3.8,1.2,4.5,2.6l-2.3,1.2c-0.4-0.7-1.2-1.3-2.2-1.3
			c-1.7,0-2.9,1.3-2.9,3c0,1.7,1.2,3,2.9,3c0.8,0,1.6-0.3,1.9-0.6v-0.8h-2.4v-2.4h5.1v4.2c-1.1,1.2-2.7,2-4.6,2
			C116.8,34.1,114.3,32,114.3,28.7z"/>
		<path fill="#373737" d="M126.2,33.9V23.4h2.7v10.5H126.2z"/>
		<path fill="#373737" d="M130.3,28.7c0-3.2,2.4-5.4,5.6-5.4c3.2,0,5.6,2.2,5.6,5.4c0,3.2-2.4,5.4-5.6,5.4
			C132.7,34.1,130.3,31.9,130.3,28.7z M138.7,28.7c0-1.7-1.1-3-2.8-3c-1.7,0-2.9,1.3-2.9,3c0,1.7,1.1,3,2.9,3
			C137.6,31.7,138.7,30.4,138.7,28.7z"/>
		<path fill="#373737" d="M150,33.9l-4.4-6.1v6.1h-2.7V23.4h2.8l4.3,5.8v-5.8h2.7v10.5H150z"/>
		<path fill="#373737" d="M26.5,42.3c0-3.2,2.5-5.4,5.7-5.4c2.5,0,3.9,1.4,4.6,2.8l-2.3,1.1c-0.3-0.8-1.2-1.5-2.3-1.5
			c-1.7,0-2.9,1.3-2.9,3c0,1.7,1.2,3,2.9,3c1,0,1.9-0.7,2.3-1.5l2.3,1.1c-0.7,1.4-2,2.8-4.6,2.8C29,47.8,26.5,45.6,26.5,42.3z"/>
		<path fill="#373737" d="M45,47.6v-4.2h-4.4v4.2h-2.7V37.1h2.7V41H45v-3.9h2.7v10.5H45z"/>
		<path fill="#373737" d="M56.7,47.6l-0.5-1.5h-4.1l-0.5,1.5h-3.1l4-10.5h3.4l4,10.5H56.7z M54.1,39.7l-1.3,4h2.7L54.1,39.7z"/>
		<path fill="#373737" d="M69.8,47.6v-6.8l-2.7,6.8h-1.2l-2.6-6.8v6.8h-2.7V37.1h3.8l2.2,5.7l2.2-5.7h3.8v10.5H69.8z"/>
		<path fill="#373737" d="M74.4,47.6V37.1h6c2.1,0,3.1,1.4,3.1,2.7c0,1.3-0.8,2.2-1.8,2.4c1.1,0.2,2,1.2,2,2.6c0,1.5-1,2.8-3.1,2.8
			H74.4z M80.6,40.2c0-0.5-0.4-0.9-0.9-0.9h-2.6v1.7h2.6C80.3,41.1,80.6,40.7,80.6,40.2z M80.8,44.3c0-0.5-0.4-0.9-1-0.9h-2.7v1.9
			h2.7C80.5,45.3,80.8,44.9,80.8,44.3z"/>
		<path fill="#373737" d="M85.1,47.6V37.1h7.7v2.4h-5v1.6h4.9v2.4h-4.9v1.8h5v2.4H85.1z"/>
		<path fill="#373737" d="M100.2,47.6L98.5,44h-1.4v3.5h-2.7V37.1h5.3c2.3,0,3.7,1.5,3.7,3.5c0,1.8-1.1,2.8-2.1,3.1l2.1,3.9H100.2z
			 M100.5,40.5c0-0.7-0.6-1.1-1.3-1.1h-2.1v2.3h2.1C99.9,41.7,100.5,41.3,100.5,40.5z"/>
	</g>
	<path fill="#84BC00" d="M51.2,19.2l7.7-7.3v-1c0,0-9.2-9.6-23.7-9.6S1.4,13.5,1.4,33.1s13.3,36.5,32.4,36.5s25.2-9.6,25.2-9.6V59
		l-7.6-8c0,0-4.7,11.6-17.1,11.6S16.8,46.1,16.8,33.3s9.5-25,18.3-25S51.2,17.3,51.2,19.2z"/>
</g>
</svg>
